<svg width="512" height="512" xmlns="http://www.w3.org/2000/svg">

 <g>
  <title>background</title>
  <rect fill="none" id="canvas_background" height="402" width="582" y="-1" x="-1"/>
 </g>
 <g>
  <title>Layer 1</title>
  <path id="svg_2" fill="#3e73a9" d="m436.734009,256c0,44.570007 -16.132996,85.369995 -42.877991,116.882996c-8.326019,9.811005 -17.682007,18.722992 -27.899017,26.565002c-25.087006,19.259003 -55.368988,32.087006 -88.384979,36.011993c-7.072021,0.84201 -14.271027,1.274017 -21.572021,1.274017c-99.815994,0 -180.733994,-80.916992 -180.733994,-180.734009c0,-13.978989 1.588005,-27.588989 4.592003,-40.654984c1.43,-6.216003 3.177002,-12.308014 5.229004,-18.259003c1.573997,-4.570007 3.327995,-9.056 5.250999,-13.451004c2.170998,-4.962006 4.556999,-9.807007 7.148994,-14.524002l0,-0.001999c30.721992,-55.933006 90.190987,-93.84301 158.512993,-93.84301c13.464996,0 26.583008,1.472 39.207001,4.265999c14.117004,3.120003 27.614014,7.896004 40.277008,14.105003c7.42099,3.639999 14.554993,7.773003 21.358978,12.357002c13.167999,8.868996 25.103027,19.425995 35.496002,31.360001c27.652008,31.746994 44.39502,73.240997 44.39502,118.645996z"/>
  <path id="svg_3" fill="#24588c" d="m436.734009,256c0,44.570007 -16.132996,85.369995 -42.877991,116.882996c-8.326019,9.811005 -17.682007,18.722992 -27.899017,26.565002c-25.087006,19.259003 -55.368988,32.087006 -88.384979,36.011993l-160.277023,-160.277985l0.112999,-0.233002l23.316002,-47.718994l48.986008,-24.291016l7.210999,-3.57399l13.507996,-6.697998l29.630997,29.110001l0.492004,-27.565002c0,0 62.562988,-76.464996 65.649994,-77.236992l19.311005,-0.772003l84.806,79.939995c0.066986,-0.731003 0.126007,-1.468002 0.175995,-2.205002c0.360016,-5.28299 0.330017,-10.505997 -0.072998,-15.647995c-5.06601,-1.054001 -9.579987,-3.492996 -13.169006,-6.871994c-5.826996,-5.458008 -9.227997,-13.406006 -8.641998,-21.983002c0.182007,-2.66301 0.740021,-5.225998 1.621002,-7.621002l0.006012,0c0.567993,-1.559006 1.27298,-3.048996 2.10199,-4.457001c27.651001,31.743988 44.394012,73.237991 44.394012,118.64299z"/>
  <path id="svg_6" fill="#ffce47" d="m410.421997,178.287994c-5.06601,-1.054001 -9.579987,-3.493011 -13.169006,-6.872009c-5.826996,-5.457993 -9.227997,-13.405991 -8.641998,-21.983002c0.182007,-2.662994 0.740021,-5.225998 1.621002,-7.620987l0.006012,0c0.567993,-1.559006 1.27298,-3.049011 2.10199,-4.457001c-10.393982,-11.935005 -22.328003,-22.490997 -35.496002,-31.360008c-0.346008,-0.008995 -0.692993,-0.026001 -1.040009,-0.049995c-8.692993,-0.595001 -16.080994,-5.408005 -20.319,-12.307999c-12.662994,-6.210007 -26.159973,-10.985001 -40.276978,-14.104996c-1.105011,0.081001 -2.209015,0.181999 -3.307007,0.298004l-0.007996,0c-0.582001,2.561996 -1.563995,4.969986 -2.856018,7.172989c-4.811981,8.193001 -13.970001,13.419998 -24.10199,12.727013c-2.609985,-0.18 -5.106995,-0.739006 -7.428986,-1.626007c-0.104004,-0.035995 -0.208008,-0.076996 -0.311005,-0.116997c-2.729004,-1.064003 -5.214005,-2.585999 -7.373001,-4.457001c-11.484009,6.611 -21.650009,15.297005 -29.969009,25.566994c2.234009,2.909996 3.837997,6.308998 4.669006,9.982994c0.127991,0.554001 0.237,1.113007 0.324997,1.682007c0.300995,1.880997 0.384995,3.824997 0.25,5.807999c-0.684006,9.994995 -6.953003,18.280014 -15.563004,22.006012c-3.192993,1.373993 -6.707993,2.138992 -10.388,2.116989c-1.488998,5.986008 -2.47699,12.210007 -2.912003,18.587997c-0.464996,6.804993 -0.279999,13.494995 0.486008,20.020996l-0.001999,0.018005c0.067993,0.015991 0.134995,0.028 0.203003,0.046005c3.378998,0.766998 6.481995,2.204987 9.196991,4.139999c7.072006,5.04599 11.443008,13.535995 10.807007,22.834991c-0.210999,3.080002 -0.953003,5.992004 -2.132996,8.658005c-0.989014,2.280991 -2.311005,4.356003 -3.888,6.223999c1.939987,3.276993 4.051987,6.449997 6.320999,9.498001c4.103989,5.513992 8.731995,10.630997 13.817993,15.268997c1,0.911011 2.016006,1.803986 3.055008,2.68399c0.272995,0.233002 0.554993,0.462006 0.829987,0.680023c0.881012,0.75 1.775009,1.461975 2.689011,2.168976c0.082001,-0.054993 0.162003,-0.108002 0.246002,-0.161987c2.30899,-1.506989 4.876999,-2.636017 7.595993,-3.317017c2.604996,-0.661987 5.348999,-0.936981 8.162003,-0.744995c10.007996,0.684998 18.287994,6.960022 22.016998,15.557007c1.084991,2.502991 1.791992,5.197998 2.020996,8.03299c5.928009,1.447998 12.071991,2.419006 18.371002,2.850006c5.778015,0.395996 11.479004,0.320007 17.072998,-0.190002c1.347992,-0.121979 2.688995,-0.270996 4.02301,-0.442993c0.700989,-2.924988 1.917999,-5.639984 3.514984,-8.067993c4.983002,-7.518005 13.746002,-12.212006 23.382019,-11.553009c2.839996,0.194 5.53299,0.84201 8.03598,1.872009c2.226013,0.895996 4.287994,2.10498 6.147003,3.565002c11.121002,-6.608002 20.964996,-15.184021 29.039001,-25.269012c0,0 0,0 0,-0.01799c-1.553009,-3 -2.566986,-6.320999 -2.906982,-9.81601c-0.151001,-1.496994 -0.172028,-3.041992 -0.065002,-4.591995c0.681976,-9.957993 6.618988,-18.315994 14.927979,-22.509003c2.468018,-1.263 5.147003,-2.151001 7.971008,-2.591995c1.539001,-5.807999 2.60199,-11.809998 3.145996,-17.979996c0.029999,-0.338013 0.059998,-0.678009 0.087006,-1.018005c0.01001,-0.113998 0.019989,-0.227997 0.027008,-0.341995c0.02298,-0.282013 0.041992,-0.563004 0.061981,-0.846008c0.361023,-5.286987 0.331024,-10.508987 -0.071991,-15.651993zm-92.692993,9.059006c-0.091003,1.315994 -0.365997,2.576996 -0.798004,3.751007c-1.583008,4.288986 -5.274994,7.507996 -9.746002,8.495987c-1.234009,0.279999 -2.529999,0.381012 -3.856995,0.290009c-4.554993,-0.313004 -8.43399,-2.848007 -10.621002,-6.473007c-0.214996,-0.330002 -0.39801,-0.677994 -0.575012,-1.026993c-1.027985,-2.063004 -1.529999,-4.417999 -1.362,-6.882004c0.488007,-7.141998 6.421021,-12.591003 13.453003,-12.593002c0.320007,-0.003998 0.63501,0.005997 0.950012,0.026001c0.544006,0.037003 1.072998,0.112 1.588989,0.210999c6.644012,1.242004 11.44101,7.281998 10.96701,14.201004z"/>
  <path id="svg_9" fill="#91d4c6" d="m208.742004,248.158997c-2.094009,-3.466995 -2.667999,-7.809998 -1.199005,-11.923996c0.455002,-1.270004 1.070007,-2.430008 1.841995,-3.479004l0.008011,0.003998c1.112991,-1.554001 2.531998,-2.841995 4.128998,-3.791c-0.854996,-3.280991 -2.014999,-6.459 -3.453003,-9.507996c-1.410004,-2.988998 -3.085007,-5.845993 -5.022995,-8.548004c-1.186005,0.291 -2.422012,0.415009 -3.667999,0.360001c-1.291,-0.044998 -2.59201,-0.297989 -3.852005,-0.748993c-0.930008,-0.334 -1.796005,-0.757996 -2.596008,-1.263c-2.116989,-1.320999 -3.761993,-3.203995 -4.802994,-5.375c-0.582001,-1.195999 -0.970993,-2.468994 -1.173004,-3.785004c-0.209991,-1.324997 -0.194,-2.686005 0.036011,-4.024002c-2.174011,-1.310989 -4.462997,-2.483994 -6.848007,-3.492996c-0.981003,-0.423996 -1.974991,-0.817993 -2.990005,-1.181c-3.047989,-1.087997 -6.126999,-1.869003 -9.214996,-2.397995c-0.634995,1.164001 -1.438004,2.200989 -2.380997,3.097992c-3.466995,3.343002 -8.662994,4.626999 -13.509995,2.897003c-1.304001,-0.468002 -2.490005,-1.121002 -3.529999,-1.914993c-1.181,-0.895004 -2.192001,-1.98201 -2.983002,-3.189011c-6.511002,1.643997 -12.662003,4.486008 -18.13501,8.350006c0.69101,1.731995 1.01001,3.604004 0.902008,5.520004c-0.070007,1.240997 -0.315002,2.498993 -0.753998,3.722992c-1.707008,4.778 -5.895004,7.959 -10.609009,8.600006c-1.741997,0.229996 -3.563995,0.117996 -5.358994,-0.397003c-1.558006,2.718002 -2.889,5.612 -3.979004,8.669998c-0.362,1.016006 -0.686996,2.031998 -0.987,3.057999c-0.657997,2.242004 -1.159996,4.513 -1.517998,6.777008c1.577995,0.848999 2.925995,1.993988 4.003998,3.339996c0.724998,0.899994 1.321999,1.884003 1.778999,2.940002c1.299004,2.959 1.515999,6.406998 0.346001,9.685989c-0.520996,1.463013 -1.287003,2.796005 -2.230003,3.929001c-0.795998,0.973007 -1.726997,1.804001 -2.745995,2.50499c0.173996,0.664001 0.368996,1.341003 0.587997,2.014008c0.777,2.554016 1.734001,5.037018 2.885002,7.436005c0.688995,1.433014 1.432999,2.846008 2.248001,4.220001c0.503998,0.872009 1.041,1.729004 1.600998,2.561005c0.490997,0.752991 1.011002,1.494995 1.552002,2.213989c1.366997,-0.440979 2.818001,-0.662994 4.291,-0.617004c1.364998,0.027008 2.741997,0.279999 4.099998,0.765015c4.775002,1.703003 7.952995,5.901001 8.590004,10.604004c0.18399,1.371979 0.15799,2.783997 -0.119003,4.203979c2.692993,1.518005 5.548996,2.846008 8.561996,3.924011c3.436996,1.22699 6.903,2.078003 10.378006,2.580017l0.003998,0.000977c0.744003,-1.328979 1.718002,-2.488983 2.837997,-3.453003c3.455994,-2.978973 8.367004,-4.067993 12.981995,-2.42099c1.354004,0.481995 2.590012,1.162994 3.657013,2.018005c0.977997,0.744995 1.806,1.613983 2.513,2.589996c6.334,-1.704987 12.314987,-4.524994 17.634003,-8.337006c0,0 0,0 0.003006,-0.010986c-0.355011,-1.671021 -0.376999,-3.429993 -0.06601,-5.188995c0.128006,-0.742004 0.328003,-1.496002 0.598007,-2.244019c1.700989,-4.770996 5.75,-8.028992 10.380981,-8.928986c1.376999,-0.279999 2.813004,-0.34201 4.238007,-0.170013c1.727997,-2.932007 3.203003,-6.065002 4.389999,-9.389984c0.908997,-2.542999 1.604004,-5.081009 2.121994,-7.631012c-2.327988,-1.220993 -4.195999,-3.031006 -5.474991,-5.177002zm-30.682007,0.651001c-3.395004,9.503998 -13.849991,14.449005 -23.354004,11.054993c-4.707993,-1.681976 -8.311996,-5.098984 -10.316986,-9.287994c-0.396011,-0.797989 -0.725006,-1.636002 -0.993011,-2.487991c-1.138,-3.652008 -1.144989,-7.688004 0.240997,-11.572998c3.39801,-9.512009 13.855011,-14.457001 23.35701,-11.063004c1.395996,0.498993 2.69899,1.154999 3.882004,1.931c2.888,1.897995 5.127991,4.520996 6.531998,7.546997c1.965988,4.209 2.335999,9.162003 0.651993,13.878998z"/>
  <path id="svg_10" fill="#8269ad" d="m122.730003,198.343002c-0.302002,-0.253006 -0.549004,-0.550995 -0.734001,-0.891998l-0.015999,-0.037003c-0.083,-0.141006 -0.145004,-0.285004 -0.191002,-0.423004c-0.003998,-0.020004 -0.010002,-0.030991 -0.015999,-0.044998c-0.355003,-1.029999 -0.131004,-2.197006 0.587997,-3.033005c0.005997,-0.011993 0.019997,-0.029999 0.030998,-0.039993c0.176003,-0.221008 0.405998,-0.412994 0.676003,-0.583008c1.052002,-0.641998 1.614998,-1.848999 1.446999,-3.067993c-0.235001,-1.710999 -0.648003,-3.436005 -1.235001,-5.130997c-0.403,-1.205002 -0.920998,-2.408997 -1.553001,-3.675003c-0.5,-0.992004 -1.488998,-1.626999 -2.562996,-1.699997c-0.262001,-0.018005 -0.523003,0.000992 -0.791,0.050003c-0.277,0.054001 -0.564003,0.070999 -0.846001,0.051987c-0.296997,-0.020996 -0.592003,-0.082993 -0.871002,-0.187988c-0.907997,-0.344009 -1.604996,-1.056 -1.915001,-1.96701c-0.086998,-0.250992 -0.137001,-0.492996 -0.156998,-0.720993c-0.004997,-0.054001 -0.004997,-0.115997 -0.006996,-0.169998c-0.019005,-0.434998 0.035995,-0.846008 0.187996,-1.231003c0.488998,-1.298004 0.064003,-2.759995 -1.048996,-3.593994c-2.738007,-2.055008 -5.791,-3.563004 -9.066002,-4.487c-0.209,-0.059006 -0.418999,-0.097 -0.633003,-0.110001c-1.030998,-0.070999 -2.044998,0.378998 -2.687996,1.220993c-0.142006,0.190002 -0.331001,0.371994 -0.563004,0.537994c-0.219002,0.165009 -0.450996,0.282013 -0.714996,0.373001c-0.380005,0.126999 -0.75,0.182007 -1.121002,0.156006c-0.519997,-0.037003 -1.021004,-0.222 -1.445,-0.527008c-2.593002,4.718002 -4.979004,9.563004 -7.149002,14.524002c0.853004,-0.557999 1.784004,-1.013992 2.774002,-1.35199c1.584,-0.544006 3.224998,-0.761002 4.876999,-0.64801c5.005997,0.344009 9.295998,3.632004 10.916,8.374008c2.229004,6.492004 -1.246002,13.582001 -7.736,15.80899c-1.573997,0.541 -3.213997,0.757004 -4.857002,0.645004c-5.017998,-0.343994 -9.306999,-3.632004 -10.927994,-8.386002c-0.113007,-0.328003 -0.211006,-0.65799 -0.297005,-0.98999c-2.052002,5.950989 -3.798996,12.042999 -5.228996,18.258987c0.202995,0.338013 0.473,0.639008 0.802994,0.88501c2.813004,2.082993 5.965004,3.604004 9.363007,4.513992c0.196999,0.057007 0.395996,0.089005 0.591995,0.103012c1.080002,0.072998 2.140999,-0.423004 2.770004,-1.336014c0.202995,-0.297989 0.416,-0.526993 0.632996,-0.68399c0.021004,-0.018005 0.043999,-0.035004 0.063004,-0.05101c0.221001,-0.166992 0.480995,-0.30899 0.755997,-0.406998c0.349998,-0.11499 0.719002,-0.162003 1.089005,-0.136993c0.649994,0.043991 1.278,0.317993 1.754997,0.772003c0.228996,0.215988 0.395996,0.442001 0.525002,0.687988c0.505997,0.980011 1.479996,1.608002 2.550995,1.682007c0.227005,0.016006 0.451004,0.007996 0.68,-0.024994c1.527,-0.239014 3.094002,-0.625 4.661003,-1.158005c1.706001,-0.578995 3.374001,-1.343994 4.943001,-2.253998c1.112,-0.652008 1.712997,-1.929001 1.500999,-3.199005c-0.049004,-0.283997 -0.044998,-0.595001 0.015999,-0.938004c0.195999,-0.993988 0.903999,-1.806 1.842003,-2.125992c0.286995,-0.097 0.575996,-0.143005 0.862,-0.141006c0.019997,-0.005997 0.043999,-0.005997 0.067001,-0.003998c0.060997,0 0.134995,-0.001999 0.200996,0.003998c0.171997,0.012009 0.351997,0.042007 0.530998,0.091003c0.199005,0.056 0.396004,0.087006 0.593002,0.100998c1.042,0.070999 2.072998,-0.388992 2.714996,-1.253998c1.991005,-2.695007 3.458,-5.688004 4.366005,-8.889999c0.337997,-1.182999 -0.057999,-2.453003 -1.003998,-3.238998z"/>
 </g>
</svg>