<?xml version="1.0" encoding="utf-8"?>
<!-- Generator: Adobe Illustrator 16.0.2, SVG Export Plug-In . SVG Version: 6.00 Build 0)  -->
<!DOCTYPE svg PUBLIC "-//W3C//DTD SVG 1.1//EN" "http://www.w3.org/Graphics/SVG/1.1/DTD/svg11.dtd">
<svg version="1.1" id="Layer_1" xmlns="http://www.w3.org/2000/svg" xmlns:xlink="http://www.w3.org/1999/xlink" x="0px" y="0px"
	 width="339px" height="315px" viewBox="60.5 79.5 339 315" enable-background="new 60.5 79.5 339 315" xml:space="preserve">
<path fill="#63C1A0" d="M185.157,171.451c-6.943,2.028-14.453-1.477-17.364-8.292c-2.876-6.82-0.154-14.639,6.131-18.237
	c-3.533-4.756-7.788-9.043-12.73-12.606c-3.503,6.381-11.263,9.227-18.175,6.443c-6.913-2.813-10.51-10.324-8.537-17.296
	c-6.041-0.847-12.077-0.786-17.956,0.154c2.031,6.977-1.443,14.481-8.292,17.392c-6.852,2.941-14.67,0.157-18.268-6.13
	c-4.754,3.535-9.009,7.818-12.576,12.762c6.384,3.504,9.23,11.261,6.445,18.173c-2.813,6.913-10.325,10.481-17.3,8.541
	c-0.842,6.038-0.782,12.075,0.158,17.958c6.979-2.036,14.483,1.406,17.396,8.286c2.905,6.853,0.154,14.671-6.132,18.269
	c3.533,4.757,7.819,9.008,12.761,12.577c3.503-6.383,11.263-9.263,18.175-6.445c6.883,2.783,10.479,10.263,8.571,17.271
	c6.006,0.874,12.074,0.781,17.924-0.161c-2.033-6.942,1.41-14.48,8.288-17.389c6.853-2.91,14.672-0.126,18.27,6.162
	c4.753-3.568,9.009-7.824,12.577-12.767c-6.381-3.503-9.261-11.257-6.445-18.174c2.782-6.879,10.261-10.478,17.269-8.538
	C186.222,183.367,186.128,177.298,185.157,171.451z M130.315,198.773c-0.218,0.055-0.429,0.124-0.651,0.168
	c-0.243,0.051-0.495,0.074-0.741,0.113c-0.361,0.061-0.723,0.13-1.093,0.167c-0.245,0.025-0.499,0.022-0.749,0.038
	c-0.377,0.023-0.754,0.059-1.139,0.059c-10.167,0-18.428-8.256-18.428-18.453c0-10.168,8.261-18.425,18.428-18.425
	c8.923,0,16.361,6.321,18.081,14.714c0.246,1.199,0.375,2.44,0.375,3.711C144.398,189.55,138.395,196.81,130.315,198.773z"/>
<g>
	<rect x="152.962" y="113.634" fill="#68BDCC" width="186.949" height="260.798"/>
	<g>
		<rect x="176.113" y="144.116" fill="#53B78E" width="38.198" height="3.789"/>
		<rect x="176.113" y="173.194" fill="#53B78E" width="10.769" height="3.785"/>
		<rect x="220.97" y="144.116" fill="#53B78E" width="15.19" height="3.789"/>
		<rect x="189.667" y="173.194" fill="#53B78E" width="38.876" height="3.785"/>
		<rect x="186.882" y="154.057" fill="#53B78E" width="17.132" height="3.784"/>
		<rect x="186.882" y="203.011" fill="#53B78E" width="17.132" height="3.782"/>
		<rect x="176.113" y="261.895" fill="#53B78E" width="27.901" height="3.787"/>
		<rect x="186.882" y="212.953" fill="#53B78E" width="7.065" height="3.786"/>
		<rect x="208.058" y="203.011" fill="#53B78E" width="44.752" height="3.782"/>
		<rect x="205.192" y="232.824" fill="#53B78E" width="43.398" height="3.784"/>
		<rect x="195.984" y="340.654" fill="#53B78E" width="15.577" height="3.785"/>
		<rect x="253.841" y="271.83" fill="#53B78E" width="16.054" height="3.788"/>
		<rect x="208.523" y="320.777" fill="#53B78E" width="30.24" height="3.785"/>
		<rect x="218.322" y="340.654" fill="#53B78E" width="35.532" height="3.785"/>
		<rect x="282.198" y="291.704" fill="#53B78E" width="12.913" height="3.78"/>
		<rect x="256.438" y="232.824" fill="#53B78E" width="32.22" height="3.784"/>
		<rect x="257.889" y="203.011" fill="#53B78E" width="32.191" height="3.782"/>
		<rect x="296.634" y="203.011" fill="#53B78E" width="19.706" height="3.782"/>
		<rect x="186.882" y="183.139" fill="#53B78E" width="25.559" height="3.785"/>
		<rect x="186.882" y="193.072" fill="#53B78E" width="36.244" height="3.787"/>
		<rect x="196.563" y="212.953" fill="#53B78E" width="41.539" height="3.786"/>
		<rect x="186.882" y="281.771" fill="#53B78E" width="41.535" height="3.781"/>
		<rect x="186.882" y="291.704" fill="#53B78E" width="45.61" height="3.78"/>
		<rect x="225.737" y="330.727" fill="#53B78E" width="80.747" height="3.779"/>
		<rect x="264.674" y="340.654" fill="#53B78E" width="17.688" height="3.785"/>
		<rect x="237.396" y="291.704" fill="#53B78E" width="39.565" height="3.78"/>
		<rect x="250.262" y="320.777" fill="#53B78E" width="39.563" height="3.785"/>
		<rect x="196.563" y="222.888" fill="#53B78E" width="13.497" height="3.785"/>
		<rect x="196.563" y="242.759" fill="#53B78E" width="14.68" height="3.784"/>
		<rect x="186.882" y="271.83" fill="#53B78E" width="61.708" height="3.788"/>
		<rect x="176.113" y="320.777" fill="#53B78E" width="27.66" height="3.785"/>
		<rect x="186.882" y="330.725" fill="#53B78E" width="31.512" height="3.781"/>
		<rect x="214.311" y="222.888" fill="#53B78E" width="81.089" height="3.785"/>
		<rect x="195.511" y="301.641" fill="#53B78E" width="25.925" height="3.789"/>
		<rect x="230.333" y="301.641" fill="#53B78E" width="71.702" height="3.789"/>
		<rect x="246.652" y="212.953" fill="#53B78E" width="27.333" height="3.786"/>
		<rect x="226.989" y="193.072" fill="#53B78E" width="36.234" height="3.787"/>
		<rect x="265.73" y="193.072" fill="#53B78E" width="29.778" height="3.787"/>
		<rect x="306.487" y="193.072" fill="#53B78E" width="16.134" height="3.787"/>
		<rect x="220.793" y="183.139" fill="#53B78E" width="39.249" height="3.785"/>
		<rect x="210.352" y="154.057" fill="#53B78E" width="38.858" height="3.784"/>
	</g>
</g>
<g>
	<rect x="138.853" y="99.524" fill="#EAB22A" width="186.95" height="260.796"/>
	<g>
		<rect x="162.004" y="130.007" fill="#EAB22A" width="38.198" height="3.789"/>
		<rect x="162.004" y="159.084" fill="#EAB22A" width="10.769" height="3.786"/>
		<rect x="206.861" y="130.007" fill="#EAB22A" width="15.19" height="3.789"/>
		<rect x="175.558" y="159.084" fill="#EAB22A" width="38.876" height="3.786"/>
		<rect x="172.773" y="139.947" fill="#EAB22A" width="17.132" height="3.784"/>
		<rect x="172.773" y="188.9" fill="#EAB22A" width="17.132" height="3.783"/>
		<rect x="162.004" y="247.785" fill="#EAB22A" width="27.901" height="3.787"/>
		<rect x="172.773" y="198.844" fill="#EAB22A" width="7.065" height="3.786"/>
		<rect x="193.949" y="188.9" fill="#EAB22A" width="44.753" height="3.783"/>
		<rect x="191.083" y="218.714" fill="#EAB22A" width="43.398" height="3.785"/>
		<rect x="181.875" y="326.545" fill="#EAB22A" width="15.576" height="3.786"/>
		<rect x="239.732" y="257.721" fill="#EAB22A" width="16.054" height="3.788"/>
		<rect x="194.415" y="306.669" fill="#EAB22A" width="30.24" height="3.785"/>
		<rect x="204.213" y="326.545" fill="#EAB22A" width="35.531" height="3.786"/>
		<rect x="268.09" y="277.595" fill="#EAB22A" width="12.912" height="3.78"/>
		<rect x="242.327" y="218.714" fill="#EAB22A" width="32.221" height="3.785"/>
		<rect x="243.78" y="188.9" fill="#EAB22A" width="32.191" height="3.783"/>
		<rect x="282.525" y="188.9" fill="#EAB22A" width="19.706" height="3.783"/>
		<rect x="172.773" y="169.029" fill="#EAB22A" width="25.559" height="3.785"/>
		<rect x="172.773" y="178.963" fill="#EAB22A" width="36.244" height="3.787"/>
		<rect x="182.454" y="198.844" fill="#EAB22A" width="41.539" height="3.786"/>
		<rect x="172.773" y="267.66" fill="#EAB22A" width="41.535" height="3.781"/>
		<rect x="172.773" y="277.595" fill="#EAB22A" width="45.61" height="3.78"/>
		<rect x="211.628" y="316.615" fill="#EAB22A" width="80.747" height="3.779"/>
		<rect x="250.564" y="326.545" fill="#EAB22A" width="17.688" height="3.786"/>
		<rect x="223.288" y="277.595" fill="#EAB22A" width="39.565" height="3.78"/>
		<rect x="236.153" y="306.669" fill="#EAB22A" width="39.563" height="3.785"/>
		<rect x="182.454" y="208.778" fill="#EAB22A" width="13.497" height="3.785"/>
		<rect x="182.454" y="228.649" fill="#EAB22A" width="14.68" height="3.784"/>
		<rect x="172.773" y="257.721" fill="#EAB22A" width="61.708" height="3.788"/>
		<rect x="162.004" y="306.669" fill="#EAB22A" width="27.66" height="3.785"/>
		<rect x="172.773" y="316.614" fill="#EAB22A" width="31.512" height="3.78"/>
		<rect x="200.202" y="208.778" fill="#EAB22A" width="81.091" height="3.785"/>
		<rect x="181.402" y="287.53" fill="#EAB22A" width="25.925" height="3.79"/>
		<rect x="216.224" y="287.53" fill="#EAB22A" width="71.702" height="3.79"/>
		<rect x="232.543" y="198.844" fill="#EAB22A" width="27.334" height="3.786"/>
		<rect x="212.88" y="178.963" fill="#EAB22A" width="36.234" height="3.787"/>
		<rect x="251.623" y="178.963" fill="#EAB22A" width="29.777" height="3.787"/>
		<rect x="292.379" y="178.963" fill="#EAB22A" width="16.134" height="3.787"/>
		<rect x="206.684" y="169.029" fill="#EAB22A" width="39.249" height="3.785"/>
		<rect x="196.243" y="139.947" fill="#EAB22A" width="38.858" height="3.784"/>
	</g>
</g>
<g>
	<rect x="126.392" y="87.064" fill="#260E26" width="186.949" height="260.797"/>
	<g>
		<rect x="149.543" y="117.547" fill="#89D3DF" width="38.197" height="3.789"/>
		<rect x="149.543" y="146.624" fill="#89D3DF" width="10.768" height="3.786"/>
		<rect x="194.4" y="117.547" fill="#E01A59" width="15.19" height="3.789"/>
		<rect x="163.097" y="146.624" fill="#63C1A0" width="38.876" height="3.786"/>
		<rect x="160.312" y="127.486" fill="#89D3DF" width="17.132" height="3.785"/>
		<rect x="160.312" y="176.44" fill="#89D3DF" width="17.132" height="3.783"/>
		<rect x="149.543" y="235.325" fill="#E6E5E5" width="27.9" height="3.786"/>
		<rect x="160.312" y="186.383" fill="#89D3DF" width="7.065" height="3.786"/>
		<rect x="181.488" y="176.44" fill="#89D3DF" width="44.753" height="3.783"/>
		<rect x="178.622" y="206.254" fill="#89D3DF" width="43.398" height="3.785"/>
		<rect x="169.414" y="314.085" fill="#89D3DF" width="15.577" height="3.786"/>
		<rect x="227.271" y="245.261" fill="#E6E5E5" width="16.054" height="3.788"/>
		<rect x="181.953" y="294.209" fill="#E6E5E5" width="30.24" height="3.785"/>
		<rect x="191.752" y="314.085" fill="#E6E5E5" width="35.531" height="3.786"/>
		<rect x="255.628" y="265.135" fill="#E01A59" width="12.913" height="3.78"/>
		<rect x="229.866" y="206.254" fill="#E01A59" width="32.221" height="3.785"/>
		<rect x="231.319" y="176.44" fill="#63C1A0" width="32.189" height="3.783"/>
		<rect x="270.063" y="176.44" fill="#63C1A0" width="19.709" height="3.783"/>
		<rect x="160.312" y="156.569" fill="#63C1A0" width="25.559" height="3.784"/>
		<rect x="160.312" y="166.503" fill="#63C1A0" width="36.244" height="3.787"/>
		<rect x="169.992" y="186.383" fill="#63C1A0" width="41.539" height="3.786"/>
		<rect x="160.312" y="255.2" fill="#E6E5E5" width="41.535" height="3.782"/>
		<rect x="160.312" y="265.135" fill="#63C1A0" width="45.61" height="3.78"/>
		<rect x="199.167" y="304.155" fill="#E01A59" width="80.746" height="3.78"/>
		<rect x="238.104" y="314.085" fill="#63C1A0" width="17.687" height="3.786"/>
		<rect x="210.826" y="265.135" fill="#63C1A0" width="39.566" height="3.78"/>
		<rect x="223.691" y="294.209" fill="#63C1A0" width="39.563" height="3.785"/>
		<rect x="169.992" y="196.318" fill="#89D3DF" width="13.497" height="3.785"/>
		<rect x="169.992" y="216.189" fill="#89D3DF" width="14.68" height="3.783"/>
		<rect x="160.312" y="245.261" fill="#89D3DF" width="61.708" height="3.788"/>
		<rect x="149.543" y="294.209" fill="#89D3DF" width="27.66" height="3.785"/>
		<rect x="160.312" y="304.152" fill="#89D3DF" width="31.512" height="3.783"/>
		<rect x="187.741" y="196.318" fill="#E6E5E5" width="81.09" height="3.785"/>
		<rect x="168.941" y="275.07" fill="#63C1A0" width="25.925" height="3.789"/>
		<rect x="203.762" y="275.07" fill="#E6E5E5" width="71.703" height="3.789"/>
		<rect x="220.082" y="186.383" fill="#E01A59" width="27.334" height="3.786"/>
		<rect x="200.419" y="166.503" fill="#63C1A0" width="36.234" height="3.787"/>
		<rect x="239.161" y="166.503" fill="#E01A59" width="29.778" height="3.787"/>
		<rect x="279.918" y="166.503" fill="#E6E5E5" width="16.134" height="3.787"/>
		<rect x="194.223" y="156.569" fill="#E6E5E5" width="39.25" height="3.784"/>
		<rect x="183.782" y="127.486" fill="#E6E5E5" width="38.857" height="3.785"/>
	</g>
</g>
<g>
	<g>
		<path fill="#EAB22A" d="M393.36,387.064c0.047-1.998,0.07-4.004,0.07-6.023c0-74.701-30.528-135.259-68.188-135.259
			c-37.664,0-68.194,60.558-68.194,135.259c0,2.02,0.024,4.025,0.069,6.023H393.36z"/>
		<path fill="#CE6B05" d="M326.298,141.828c-13.501-0.002-24.444,9.229-24.444,20.613c0,11.389,10.943,119.219,24.444,119.221
			c13.499-0.002,24.438-107.832,24.438-119.221C350.735,151.058,339.797,141.826,326.298,141.828z M326.294,175.224
			c-5.475,0-9.914-4.438-9.914-9.913c0-5.477,4.439-9.915,9.914-9.915c5.478,0,9.914,4.438,9.914,9.915
			C336.208,170.785,331.771,175.224,326.294,175.224z"/>
	</g>
	<g>
		<path fill="#FFFFFF" d="M287.559,331.634v-11.132l22.124-12.45v11.128l-14.56,6.855l14.56,6.855v11.192L287.559,331.634z"/>
		<path fill="#FFFFFF" d="M331.358,297.988h6.855l-19.72,58.234h-6.854L331.358,297.988z"/>
		<path fill="#FFFFFF" d="M340.796,332.953l14.557-6.854l-14.557-6.854v-11.193l22.124,12.45v11.132l-22.124,12.45V332.953z"/>
	</g>
</g>
</svg>
